<svg width="20" height="20" viewBox="0 0 20 20" fill="none" xmlns="http://www.w3.org/2000/svg">
<rect width="20" height="20" fill="#003E7E"/>
<path d="M9.61068 12.679L5.16068 8.40018C5.05779 8.30103 5 8.16669 5 8.02662C5 7.88656 5.05779 7.75221 5.16068 7.65306L5.67968 7.15403C5.78275 7.05538 5.92226 7 6.06768 7C6.21311 7 6.35261 7.05538 6.45568 7.15403L9.99968 10.5454L13.5437 7.15403C13.6467 7.05538 13.7863 7 13.9317 7C14.0771 7 14.2166 7.05538 14.3197 7.15403L14.8387 7.65306C14.9416 7.75221 14.9994 7.88656 14.9994 8.02662C14.9994 8.16669 14.9416 8.30103 14.8387 8.40018L10.3887 12.679C10.2856 12.778 10.1458 12.8335 10.0002 12.8335C9.85451 12.8335 9.71479 12.778 9.61168 12.679H9.61068Z" fill="white"/>
</svg>
