<svg width="20" height="20" viewBox="0 0 20 20" fill="none" xmlns="http://www.w3.org/2000/svg">
<rect width="20" height="20" fill="#003E7E"/>
<path d="M10.3883 7.15448L14.8383 11.4333C14.9412 11.5325 14.999 11.6668 14.999 11.8069C14.999 11.9469 14.9412 12.0813 14.8383 12.1804L14.3193 12.6795C14.2163 12.7781 14.0768 12.8335 13.9313 12.8335C13.7859 12.8335 13.6464 12.7781 13.5433 12.6795L9.99934 9.28812L6.45535 12.6795C6.35228 12.7781 6.21277 12.8335 6.06735 12.8335C5.92192 12.8335 5.78242 12.7781 5.67935 12.6795L5.16035 12.1804C5.05745 12.0813 4.99966 11.9469 4.99966 11.8069C4.99966 11.6668 5.05745 11.5325 5.16035 11.4333L9.61034 7.15448C9.71346 7.05554 9.85317 6.99997 9.99884 6.99997C10.1445 6.99997 10.2842 7.05554 10.3873 7.15448H10.3883Z" fill="white"/>
</svg>
